<?xml version="1.0" encoding="UTF-8"?>
<svg width="499.53mm" height="167.65mm" version="1.1" viewBox="0 0 499.53 167.65" xmlns="http://www.w3.org/2000/svg">
<g transform="translate(1117.5 45.341)">
<text transform="scale(.26458)" fill="#000000" font-family="sans-serif" font-size="40px" style="line-height:1.25;shape-inside:url(#rect4941);white-space:pre" xml:space="preserve"/>
<g transform="translate(-719.57 -6.6265)" fill="#09c4c8" stroke-linejoin="round" stroke-miterlimit="35.2">
<path d="m-308.56-37.794c-7.5159-2e-6 -10.311 3.8791-14.308 7.8212-3.9964 3.9422-8.2507 9.1063-12.832 15.253-9.1621 12.293-19.494 28.466-29.1 45.103-9.6055 16.637-18.446 33.671-24.511 47.752-3.0325 7.0406-5.3771 13.307-6.7929 18.739-1.4158 5.4321-3.3776 9.7923 0.38034 16.301 3.758 6.509 8.5145 6.9907 13.927 8.4806 1.4961 0.41188 3.0916 0.79128 4.7656 1.1477-0.047-0.16741-0.0983-0.33642-0.13592-0.50074-0.0621-0.27151-0.11208-0.53851-0.15036-0.80254-0.0383-0.26402-0.0648-0.52462-0.0817-0.78238-0.0168-0.25775-0.0235-0.51263-0.0212-0.76533 2e-3 -0.25269 0.0135-0.50356 0.0325-0.7524 0.0191-0.24884 0.0456-0.49587 0.0791-0.74208 0.0335-0.2462 0.0734-0.4916 0.11885-0.73639 0.0455-0.24478 0.0968-0.48872 0.15193-0.73328 0.0552-0.24457 0.11424-0.48979 0.17674-0.73536 0.24995-0.98228 0.54935-1.9773 0.82217-3.0241 0.13641-0.52338 0.28392-1.0565 0.44235-1.5999 0.15844-0.54339 0.32774-1.0971 0.50745-1.6604 0.17973-0.56322 0.36973-1.1359 0.56999-1.7188 0.20029-0.58287 0.41087-1.1758 0.63098-1.7782 0.22013-0.60233 0.45013-1.2144 0.68937-1.8361 0.23921-0.62161 0.48755-1.2527 0.74517-1.8934 0.2576-0.64071 0.52417-1.2906 0.79944-1.9503 0.27525-0.65963 0.55943-1.3288 0.85161-2.0071 0.58436-1.3567 1.2018-2.749 1.85-4.1718 0.64818-1.4228 1.327-2.876 2.033-4.3548 0.70593-1.4788 1.4391-2.983 2.1968-4.5077 0.75766-1.5247 1.5397-3.0697 2.343-4.6302 0.8033-1.5605 1.6277-3.1364 2.4706-4.7227 0.84291-1.5863 1.7042-3.1833 2.5807-4.7852 0.87649-1.6019 1.7682-3.2087 2.6722-4.8162 0.90403-1.6075 1.8206-3.2153 2.7461-4.8183 0.92549-1.603 1.8597-3.2006 2.7998-4.7873 0.94015-1.5867 1.8859-3.1627 2.835-4.7227 0.94908-1.5601 1.9013-3.1039 2.8536-4.6271 0.95232-1.5232 1.9048-3.0256 2.8546-4.5015s1.897-2.9259 2.8386-4.3444c0.94163-1.4185 1.8778-2.8056 2.8055-4.1563 0.92774-1.3508 1.8473-2.665 2.7554-3.9377 0.9081-1.2727 1.8049-2.5042 2.6877-3.6887 0.44138-0.59222 0.87897-1.1723 1.3126-1.7405 0.43363-0.56819 0.86328-1.1242 1.2893-1.6676 0.42606-0.54345 0.84841-1.0747 1.2671-1.5927 0.41867-0.51798 0.83383-1.0228 1.2454-1.5146s0.8196-0.97017 1.2242-1.4351c0.40463-0.46488 0.80566-0.91615 1.2036-1.3534 0.39788-0.43725 0.79253-0.86079 1.1839-1.2697 0.39137-0.4089 0.7792-0.80305 1.1643-1.1829 0.7701-0.75965 1.4824-1.5165 2.2081-2.2242 0.18142-0.1769 0.36406-0.35084 0.54827-0.5209 0.18422-0.17006 0.37041-0.33638 0.55967-0.49816 0.18923-0.16178 0.38124-0.31871 0.57774-0.47077 0.19648-0.15207 0.39706-0.29885 0.60307-0.43977 0.20598-0.14092 0.4174-0.2763 0.63508-0.40462 0.2177-0.12833 0.44172-0.25002 0.67336-0.36432 0.23162-0.1143 0.47101-0.22103 0.71882-0.31988 0.24778-0.09884 0.5043-0.18936 0.77049-0.2713 0.2662-0.08195 0.54206-0.15549 0.82889-0.21911 0.28684-0.06361 0.58431-0.11738 0.894-0.16123 0.30967-0.04385 0.63159-0.07761 0.96634-0.10025 0.33478-0.02264 0.68284-0.03411 1.0449-0.03411 0.36205 0 0.70961 0.01146 1.0444 0.03411 0.33478 0.02264 0.65667 0.05641 0.96637 0.10025 0.30966 0.04385 0.60716 0.09761 0.894 0.16123 0.28683 0.06362 0.56266 0.13716 0.82888 0.21911 0.2662 0.08195 0.52269 0.17246 0.7705 0.2713 0.2478 0.09884 0.48717 0.20557 0.71882 0.31988 0.23164 0.11431 0.45563 0.23599 0.67333 0.36432 0.2177 0.12833 0.42911 0.26371 0.63511 0.40462 0.206 0.14092 0.40655 0.2877 0.60306 0.43977 0.19652 0.15207 0.38901 0.30899 0.57826 0.47077 0.18926 0.16178 0.37543 0.3281 0.55966 0.49816s0.36634 0.344 0.54777 0.5209c0.72574 0.70762 1.438 1.4645 2.2081 2.2242 0.38506 0.37983 0.77342 0.77398 1.1648 1.1829 0.39137 0.4089 0.78601 0.83244 1.1839 1.2697 0.39789 0.43725 0.79892 0.88852 1.2035 1.3534 0.40462 0.46488 0.81266 0.94326 1.2242 1.4351s0.82669 0.99666 1.2454 1.5146c0.4187 0.51798 0.84105 1.0492 1.2671 1.5927 0.42606 0.54345 0.85572 1.0994 1.2893 1.6676 0.43362 0.56819 0.8712 1.1482 1.3126 1.7405 0.88277 1.1844 1.7796 2.4159 2.6877 3.6887 0.90809 1.2727 1.8277 2.587 2.7554 3.9377 0.9277 1.3508 1.8634 2.7378 2.805 4.1563 0.9416 1.4185 1.8888 2.8685 2.8386 4.3444 0.9498 1.476 1.9023 2.9784 2.8546 4.5015 0.95229 1.5232 1.9045 3.0671 2.8536 4.6271 0.94907 1.5601 1.8948 3.136 2.835 4.7227 0.94013 1.5867 1.8743 3.1843 2.7998 4.7873 0.92549 1.603 1.842 3.2108 2.7461 4.8183 0.90403 1.6075 1.7956 3.2143 2.6722 4.8162 0.87654 1.6019 1.7378 3.199 2.5807 4.7852 0.84297 1.5863 1.6678 3.1622 2.4712 4.7227 0.80336 1.5605 1.5853 3.1055 2.343 4.6302 0.75769 1.5247 1.4913 3.029 2.1973 4.5077 0.70597 1.4788 1.3842 2.932 2.0324 4.3548 0.64819 1.4228 1.2662 2.8151 1.8505 4.1718 0.29218 0.67836 0.57586 1.3475 0.85111 2.0071 0.27525 0.65962 0.54185 1.3096 0.79944 1.9503s0.50648 1.2718 0.74569 1.8934c0.2392 0.62161 0.46875 1.2337 0.68885 1.8361 0.22009 0.60234 0.4307 1.1953 0.63096 1.7782 0.20027 0.58287 0.39029 1.1555 0.56999 1.7188 0.17971 0.56322 0.34905 1.117 0.50747 1.6604 0.15842 0.5434 0.30594 1.0765 0.44235 1.5999 0.27282 1.0468 0.57172 2.0418 0.82165 3.0241 0.0625 0.24557 0.12209 0.49079 0.17725 0.73536 0.0552 0.24456 0.10594 0.4885 0.15142 0.73328 0.0455 0.24479 0.0854 0.49019 0.11885 0.73639 0.0334 0.24621 0.0606 0.49324 0.0796 0.74208s0.0303 0.49971 0.0326 0.7524c2e-3 0.2527-4e-3 0.50758-0.0212 0.76533-0.0168 0.25776-0.0439 0.51836-0.0822 0.78238-0.0383 0.26403-0.0882 0.53103-0.15038 0.80254-0.0376 0.16432-0.0889 0.33333-0.13591 0.50074 1.674-0.35646 3.27-0.73584 4.7661-1.1477 5.4122-1.49 10.169-1.9716 13.927-8.4806 3.758-6.509 1.7966-10.869 0.38086-16.301-1.4158-5.4321-3.7604-11.699-6.7929-18.739-6.065-14.081-14.906-31.115-24.511-47.752-9.6056-16.637-19.937-32.81-29.1-45.103-4.581-6.1465-8.8353-11.311-12.832-15.253-3.9964-3.9422-6.7922-7.8212-14.308-7.8212z" color="#000000" stroke-width="17" style="-inkscape-stroke:none"/>
<path d="m-308.56 40.838c-3.9988-1e-6 -5.486 2.0638-7.6123 4.1612-2.1263 2.0974-4.3898 4.8449-6.8271 8.1152-4.8746 6.5404-10.372 15.145-15.482 23.997-5.1106 8.8518-9.8136 17.914-13.04 25.406-1.6134 3.7459-2.8611 7.0801-3.6144 9.9702-0.75326 2.8901-1.797 5.21 0.20236 8.673 1.9994 3.4631 4.5301 3.7193 7.4097 4.5121 2.8796 0.79272 6.391 1.3794 10.442 1.855 8.1015 0.95134 18.302 1.4096 28.523 1.4096 10.221 0 20.422-0.45828 28.523-1.4096 4.0508-0.47567 7.5619-1.0623 10.441-1.855s5.4103-1.049 7.4097-4.5121 0.9559-5.7829 0.20263-8.673c-0.75325-2.8901-2.0007-6.2243-3.6141-9.9702-3.2269-7.4918-7.9304-16.554-13.041-25.406-5.1106-8.8518-10.608-17.456-15.482-23.997-2.4373-3.2702-4.7008-6.0178-6.8271-8.1152-2.1263-2.0974-3.6138-4.1612-7.6126-4.1612z" color="#000000" stroke-width="9.0448" style="-inkscape-stroke:none"/>
</g>
<text x="-936.35797" y="123.98866" fill="#09c4c8" font-family="'Apple SD Gothic Neo'" font-size="219.34px" font-weight="bold" stroke-width="5.4835" style="font-variant-caps:normal;font-variant-east-asian:normal;font-variant-ligatures:normal;font-variant-numeric:normal;line-height:1.25" xml:space="preserve"><tspan x="-936.35797" y="123.98866" fill="#09c4c8" font-family="'Apple SD Gothic Neo'" font-size="219.34px" font-weight="bold" stroke-width="5.4835" style="font-variant-caps:normal;font-variant-east-asian:normal;font-variant-ligatures:normal;font-variant-numeric:normal">sha</tspan></text>
</g>
</svg>
